# xmcd
#
# Track frame offsets:
#	150
#	10217
#	19861
#	36017
#	48782
#	62176
#	76910
#	84231
#
# Disc length: 1338 seconds
#
# Revision: 0
# Processed by: cddbd v1.5.2PL0 Copyright (c) Steve Scherf et al.
# Submitted via: EasyCDDAExtractor 16.0.9.1
#
DISCID=51053808
DTITLE=Jimmy Red and Friends Of The World - Brazilian Groove
DYEAR=2017
DGENRE=
TTITLE0=Brazilian Groove
TTITLE1=How You Doing?
TTITLE2=Rio
TTITLE3=Dreams
TTITLE4=O Cara Do Meu Lado
TTITLE5=Your Troubles
TTITLE6=\nJack C
TTITLE7=Rio (Instrumental)
EXTD=
EXTT0=
EXTT1=
EXTT2=
EXTT3=
EXTT4=
EXTT5=
EXTT6=
EXTT7=
PLAYORDER=
